<mxfile host="app.diagrams.net" modified="2023-09-20T22:44:34.388Z" agent="Mozilla/5.0 (Windows NT 10.0; Win64; x64) AppleWebKit/537.36 (KHTML, like Gecko) Chrome/116.0.0.0 Safari/537.36" version="21.4.0" etag="GgKRjFcLPx4oZDuF7EvH" type="github">
  <diagram name="Page-1" id="D4AOqYdzWSN9Js0rBEvm">
    <mxGraphModel>
      <root>
        <mxCell id="0" />
        <mxCell id="1" parent="0" />
      </root>
    </mxGraphModel>
  </diagram>
</mxfile>
